<svg width="6.000000" height="19.252686" viewBox="0 0 6 19.2527" fill="none" xmlns="http://www.w3.org/2000/svg" xmlns:xlink="http://www.w3.org/1999/xlink">
	<desc>
			Created with Pixso.
	</desc>
	<defs/>
	<path id="Vector" d="M1.02 9.62L5.87 1.23C5.91 1.16 5.94 1.08 5.96 0.99C5.98 0.9 6 0.81 6 0.71C5.99 0.62 5.98 0.52 5.96 0.43C5.94 0.35 5.91 0.27 5.87 0.2C5.82 0.13 5.78 0.08 5.72 0.05C5.67 0.01 5.62 -0.01 5.56 0C5.5 0 5.45 0.02 5.39 0.06C5.34 0.09 5.3 0.15 5.26 0.22L0.12 9.12C0.04 9.25 0 9.43 0 9.62C0 9.81 0.04 9.99 0.12 10.12L5.26 19.02C5.3 19.09 5.34 19.15 5.39 19.19C5.45 19.23 5.5 19.25 5.56 19.25C5.62 19.25 5.67 19.23 5.72 19.2C5.78 19.16 5.82 19.11 5.87 19.04C5.91 18.98 5.94 18.9 5.96 18.81C5.98 18.72 5.99 18.63 6 18.53C6 18.44 5.98 18.34 5.96 18.25C5.94 18.17 5.91 18.09 5.87 18.02L1.02 9.62Z" fill="#7A7A7A" fill-opacity="1.000000" fill-rule="nonzero"/>
</svg>
