<svg width="20.136047" height="10.000000" viewBox="0 0 20.136 10" fill="none" xmlns="http://www.w3.org/2000/svg" xmlns:xlink="http://www.w3.org/1999/xlink">
	<desc>
			Created with Pixso.
	</desc>
	<defs/>
	<path id="Vector" d="M10.06 8.29L1.28 0.2C1.21 0.14 1.13 0.08 1.03 0.05C0.94 0.01 0.84 -0.01 0.74 0C0.64 0 0.54 0.02 0.45 0.05C0.36 0.09 0.28 0.14 0.21 0.21C0.14 0.28 0.08 0.36 0.05 0.45C0.01 0.53 -0.01 0.63 0 0.72C0 0.82 0.02 0.91 0.06 1C0.1 1.08 0.16 1.16 0.23 1.23L9.54 9.79C9.68 9.92 9.87 10 10.06 10C10.26 10 10.45 9.92 10.59 9.79L19.9 1.23C19.97 1.16 20.03 1.08 20.07 1C20.11 0.91 20.13 0.82 20.13 0.72C20.13 0.63 20.11 0.53 20.08 0.45C20.04 0.36 19.99 0.28 19.92 0.21C19.85 0.14 19.76 0.09 19.67 0.05C19.58 0.02 19.48 0 19.38 0C19.28 -0.01 19.18 0.01 19.09 0.05C19 0.08 18.92 0.14 18.84 0.2L10.06 8.29Z" fill="#7A7A7A" fill-opacity="1.000000" fill-rule="nonzero"/>
</svg>
